<?xml version="1.0" encoding="UTF-8" standalone="no"?>
<svg
   xmlns:dc="http://purl.org/dc/elements/1.1/"
   xmlns:cc="http://creativecommons.org/ns#"
   xmlns:rdf="http://www.w3.org/1999/02/22-rdf-syntax-ns#"
   xmlns:svg="http://www.w3.org/2000/svg"
   xmlns="http://www.w3.org/2000/svg"
   version="1.1"
   id="svg2"
   viewBox="0 0 20.000003 19.999975"
   height="5.6444373mm"
   width="5.6444454mm">
  <defs
     id="defs4" />
  <metadata
     id="metadata7">
    <rdf:RDF>
      <cc:Work
         rdf:about="">
        <dc:format>image/svg+xml</dc:format>
        <dc:type
           rdf:resource="http://purl.org/dc/dcmitype/StillImage" />
        <dc:title></dc:title>
      </cc:Work>
    </rdf:RDF>
  </metadata>
  <g
     transform="translate(-70.655069,-303.51726)"
     id="layer1">
    <path
       id="path4148"
       d="m 89.317206,319.65198 c -0.638496,1.1128 -2.490184,0.52511 -3.544026,1.21331 -0.963847,0.62941 -1.279833,2.22934 -2.372864,2.5566 -1.253733,0.37536 -2.496124,-0.90563 -3.798513,-0.98037 -1.463378,-0.084 -3.060302,1.31655 -4.358162,0.60643 -1.245032,-0.68122 -1.088635,-2.73395 -1.917531,-3.91842 -0.726904,-1.03874 -2.415318,-1.45067 -2.625113,-2.71792 -0.212512,-1.28366 1.38999,-2.24343 1.619953,-3.52382 0.266712,-1.485 -0.870465,-2.57011 -0.333134,-4.51918 0.504481,-1.82992 2.822309,-0.58301 3.95139,-1.43742 1.073387,-0.81228 0.520488,-2.82713 2.411089,-3.30076 2.261929,-0.56665 2.866485,1.81348 4.481186,1.99289 1.090363,0.12121 2.277332,-1.21719 3.2299,-0.65068 1.21557,0.72292 0.590898,2.94243 1.414149,4.12262 0.77447,1.11026 2.867266,1.168 3.128492,2.51374 0.271273,1.39748 -1.788263,2.31767 -2.0194,3.72297 -0.237054,1.44132 1.452555,3.0652 0.732584,4.32001 z"
       style="color:#000000;clip-rule:nonzero;display:inline;overflow:visible;visibility:visible;opacity:0.98999999;isolation:auto;mix-blend-mode:normal;color-interpolation:sRGB;color-interpolation-filters:linearRGB;solid-color:#000000;solid-opacity:1;fill:#008000;fill-opacity:1;fill-rule:evenodd;stroke:#4d4d4d;stroke-width:0.05309255;stroke-linecap:butt;stroke-linejoin:miter;stroke-miterlimit:1;stroke-dasharray:none;stroke-dashoffset:0;stroke-opacity:1;color-rendering:auto;image-rendering:auto;shape-rendering:auto;text-rendering:auto;enable-background:accumulate" />
  </g>
</svg>
